<svg xmlns="http://www.w3.org/2000/svg" viewBox="0 0 512 512" width="512" height="512">
  <title>FixLens mark</title>
  <desc>Wrench whose ring end is a camera lens holding Fixy's amber marker eye.</desc>
  <g id="mark">
    <title>Fixy lens-wrench mark</title>
    <path id="wrench-lens" fill="#0F1C2E" fill-rule="evenodd" d="M102.6 438.3L101.9 438.9 101.2 439.5 100.6 440.3 100.2 441.1 99.8 442 99.5 442.9 99.4 443.8 99.3 444.7 99.4 445.7 99.6 446.6 99.9 447.5 100.3 448.3 100.8 449.1 101.4 449.9 102.1 450.5 102.8 451.1 103.7 451.5 104.3 451.8 107.8 453 112.5 454.2 116 454.9 119.6 455.5 123.2 455.8 126.7 456 130.2 456 133.8 455.8 136.1 455.7 139.5 455.2 143 454.6 146.2 453.9 149.6 453 152.9 451.9 155.1 451.1 158.3 449.7 161.2 448.3 164.4 446.7 167.4 444.9 170.4 442.9 172.2 441.6 174.9 439.4 177.6 437.1 179 435.8 181.2 433.6 182.7 432 184.7 429.6 187.2 426.4 189 423.9 190.2 422.1 191.8 419.4 192.7 417.7 193.8 415.8 195.1 413 196.6 409.2 197.7 406.3 198.3 404.3 199.6 399.5 200.4 395.6 201 390.7 201.3 386.6 201.4 381.8 201.2 378.1 200.8 374.2 200.1 369.5 199.9 367.1 199.9 364.6 200.1 362.1 200.3 360.5 200.6 358.9 200.9 357.3 201.4 355.7 201.9 354.2 202.5 352.7 203.2 351.2 203.9 349.7 205.2 347.6 206.6 345.6 208.1 343.7 209.8 341.9 244 308.3 245.8 306.8 247.1 305.7 249.1 304.4 251.1 303.2 252.7 302.5 254.9 301.5 257.2 300.8 259.5 300.2 261.8 299.7 264.2 299.5 265.9 299.4 268.3 299.4 269.9 299.6 272.2 299.9 273.9 300.2 276.2 300.8 278.4 301.6 284.9 304.1 287.9 305.1 291.3 306.2 297 307.8 300.4 308.6 306.1 309.7 309.3 310.2 312.8 310.7 318.9 311.3 324.8 311.6 328.4 311.6 334.2 311.5 337.8 311.3 343.7 310.7 347.2 310.2 353 309.2 359 307.9 362.5 306.9 368.4 305.1 373.9 303.2 377.3 301.8 382.7 299.4 388.2 296.7 391.3 295 396.3 291.9 399.4 290 404.4 286.4 409.1 282.8 411.9 280.4 416.4 276.3 420.6 272.1 423.1 269.5 427.1 264.8 430.9 259.8 434.5 254.7 437.9 249.4 441 243.9 443.8 238.3 446.3 232.6 448.6 226.7 450.5 220.8 452.2 214.7 453.6 208.6 454.6 202.4 455.4 196.2 455.9 189.9 456 183.7 455.8 177.4 455.4 171.1 454.6 164.9 453.5 158.7 452.1 152.6 450.5 146.5 448.5 140.6 446.2 134.7 443.7 129 440.8 123.4 437.7 118 434.4 112.7 430.8 107.5 426.9 102.6 422.8 97.8 418.4 93.3 413.8 88.9 409.1 84.9 404.2 81 399.1 77.4 393.8 74.1 388.3 71 382.7 68.2 376.9 65.6 371.1 63.4 365.1 61.4 359.1 59.8 353 58.4 346.8 57.3 340.5 56.6 334.3 56.1 328 56 321.7 56.1 315.5 56.6 309.3 57.4 303.1 58.5 297 59.8 290.9 61.5 285 63.5 279.1 65.8 273.4 68.3 267.8 71.1 262.3 74.2 257 77.6 251.9 81.2 247 85.1 242.2 89.2 237.7 93.5 233.3 98.1 229.5 102.5 227.3 105.3 223.8 110 221.8 112.9 218.7 117.9 216.9 120.9 214.1 126.1 212.7 129 211.2 132.2 209 137.7 207.7 141 205.9 146.5 204.9 150 203.5 155.6 202.7 159.1 201.8 164.8 201.3 168.4 200.7 174.2 200.5 177.8 200.3 183.7 200.4 187.2 200.7 193.1 201 196.6 201.7 202.3 202.8 208.6 203.5 212 204.2 215.1 205.8 220.7 206.8 224.1 207.9 227.1 210.4 233.5 211.2 235.8 211.6 237.4 212.1 239.6 212.3 241.3 212.5 243.6 212.6 246.1 212.4 249.3 212 251.7 211.4 254.1 210.5 257.1 209.5 259.3 208.4 261.5 207.1 263.6 205.2 266.2 203.1 268.5 169.5 302.7 167.7 304.4 165.7 305.9 163.7 307.2 161.5 308.5 160 309.2 158.5 309.8 156.9 310.4 155.4 310.8 153.8 311.3 152.2 311.6 150.6 311.8 148.9 312 146.5 312.1 144.1 312 142.4 311.8 139.1 311.3 135.7 310.9 132.4 310.7 128.8 310.6 125.3 310.6 121.7 310.9 118.2 311.3 114.7 311.9 111.2 312.7 109 313.3 105.7 314.3 102.3 315.5 99.1 316.9 95.8 318.4 92.7 320.1 89.6 321.9 87 323.7 85.2 325 82.7 327 80 329.2 78.3 330.8 76.1 333 73.8 335.6 72.4 337.3 70.4 339.8 69.1 341.6 67.3 344.3 65.5 347.2 64.4 349.2 63 352.1 61.6 355.2 60.8 357.3 59.7 360.3 58.6 363.7 58.1 365.9 57.3 369.3 56.8 372.5 56.3 375.9 56 379.6 56 381.4 56.3 382.7 56.7 384 57.4 385.1 58.2 386.2 59.2 387 60.5 387.8 61.8 388.2 63.1 388.5 64.4 388.4 65.7 388.2 67 387.7 68 387.2 115.4 354 117.4 352.9 120 351.7 122.2 350.8 124.4 350.2 127.3 349.7 129.6 349.4 131.9 349.3 134.9 349.5 137.2 349.8 139.4 350.3 142.2 351.1 144.4 352 146.5 353 149 354.5 150.9 355.9 153.1 357.9 154.7 359.5 156.2 361.3 157.9 363.7 159.1 365.7 160.1 367.8 160.9 369.9 161.6 372.1 162.1 374.2 162.4 376.4 162.6 378.7 162.7 380.3 162.6 382.6 162.3 384.7 161.9 387 161.3 389.2 160.6 391.3 159.7 393.4 158.6 395.4 157.4 397.4 156.1 399.2 154.6 400.9 153 402.6 151.3 404.1 150.1 405ZM407.5 183.8A79.3 79.3 0 1 1 248.8 183.8A79.3 79.3 0 1 1 407.5 183.8Z"/>
    <g id="fixy-eye">
      <circle id="marker-iris" cx="328.2" cy="183.8" r="44.4" fill="#FF9F1C"/>
      <circle id="catchlight" cx="312.2" cy="167.8" r="10.7" fill="#FFFFFF"/>
    </g>
  </g>
</svg>
